# Blender v2.92.0 OBJ File: 'base_materials — kopia.blend'
# www.blender.org
mtllib key_bottom_holder.mtl
o bottom_holder_Cube.568
v -0.005197 -0.018543 0.004783
v -0.005197 -0.008932 0.004795
v -0.005197 -0.018531 -0.004827
v -0.005197 -0.008920 -0.004815
v 0.005197 -0.018543 0.004783
v 0.005197 -0.008932 0.004795
v 0.005197 -0.018531 -0.004827
v 0.005197 -0.008920 -0.004815
v -0.005197 0.002531 0.004813
v -0.005197 0.002544 -0.004798
v 0.005197 0.002531 0.004813
v 0.005197 0.002544 -0.004798
v -0.003464 -0.018531 -0.004827
v -0.003464 -0.008920 -0.004815
v -0.003464 -0.018543 0.004783
v -0.003464 -0.008932 0.004795
v -0.003464 0.002544 -0.004798
v -0.003464 0.002531 0.004813
v 0.003463 -0.008920 -0.004815
v 0.003463 -0.018543 0.004783
v 0.003463 0.002544 -0.004798
v 0.003463 -0.018531 -0.004827
v 0.003463 -0.008932 0.004795
v 0.003463 0.002531 0.004813
v -0.005197 0.016988 0.004827
v -0.005197 0.017000 -0.004783
v 0.003463 0.017000 -0.004783
v 0.005197 0.017000 -0.004783
v 0.005197 0.016988 0.004827
v -0.003464 0.016988 0.004827
v -0.003464 0.017000 -0.004783
v 0.003463 0.016988 0.004827
v -0.005197 0.018535 0.003307
v -0.005197 0.018543 -0.003258
v 0.003463 0.018543 -0.003258
v 0.005197 0.018543 -0.003258
v 0.005197 0.018535 0.003307
v -0.003464 0.018535 0.003307
v -0.003464 0.018543 -0.003258
v 0.003463 0.018535 0.003307
vt 0.625000 0.000000
vt 0.375000 0.250000
vt 0.375000 0.000000
vt 0.625000 0.458309
vt 0.375000 0.500000
vt 0.375000 0.458309
vt 0.625000 0.750000
vt 0.375000 0.750000
vt 0.625000 0.958309
vt 0.375000 1.000000
vt 0.375000 0.958309
vt 0.333309 0.750000
vt 0.333309 0.500000
vt 0.625000 0.250000
vt 0.625000 0.291691
vt 0.625000 0.291691
vt 0.833309 0.500000
vt 0.833309 0.750000
vt 0.833309 0.750000
vt 0.625000 0.500000
vt 0.625000 0.750000
vt 0.625000 0.250000
vt 0.625000 0.791691
vt 0.625000 0.791691
vt 0.625000 1.000000
vt 0.625000 1.000000
vt 0.666691 0.750000
vt 0.666691 0.500000
vt 0.625000 0.458309
vt 0.166691 0.500000
vt 0.125000 0.750000
vt 0.125000 0.500000
vt 0.375000 0.791691
vt 0.375000 0.291691
vt 0.625000 0.500000
vt 0.666691 0.750000
vt 0.666691 0.500000
vt 0.625000 0.958309
vt 0.166691 0.750000
vt 0.833309 0.500000
vt 0.833309 0.750000
vt 0.666691 0.750000
vt 0.666691 0.500000
vt 0.625000 0.750000
vt 0.625000 0.000000
vt 0.625000 0.250000
vt 0.625000 0.791691
vt 0.625000 1.000000
vt 0.625000 0.291691
vt 0.625000 0.500000
vt 0.875000 0.500000
vt 0.833309 0.500000
vt 0.625000 0.750000
vt 0.625000 0.500000
vt 0.625000 0.958309
vt 0.625000 1.000000
vt 0.625000 0.458309
vt 0.625000 0.791691
vt 0.625000 0.291691
vt 0.625000 0.000000
vt 0.625000 0.250000
vt 0.625000 0.000000
vt 0.875000 0.750000
vt 0.625000 0.958309
vt 0.625000 0.458309
vn -1.0000 -0.0000 0.0000
vn 0.0000 0.0013 -1.0000
vn 1.0000 -0.0000 0.0000
vn 0.0000 -0.0013 1.0000
vn 0.0000 -1.0000 -0.0013
vn 0.0000 0.0016 -1.0000
vn 0.0000 -0.0016 1.0000
vn 0.0000 1.0000 0.0013
vn 0.0000 -0.0010 1.0000
vn 0.0000 0.0010 -1.0000
vn 0.0000 0.7012 0.7130
vn 0.0000 0.7030 -0.7112
usemtl red
s off
f 2/1/1 3/2/1 1/3/1
f 19/4/2 7/5/2 22/6/2
f 7/5/3 6/7/3 5/8/3
f 16/9/4 1/10/4 15/11/4
f 7/5/5 20/12/5 22/13/5
f 4/14/6 17/15/6 14/16/6
f 17/17/3 30/18/3 18/19/3
f 6/7/3 12/20/3 11/21/3
f 2/1/1 10/22/1 4/14/1
f 6/7/7 24/23/7 23/24/7
f 16/9/7 9/25/7 2/26/7
f 17/17/8 24/27/8 21/28/8
f 14/16/6 21/29/6 19/4/6
f 13/30/5 1/31/5 3/32/5
f 23/24/4 15/11/4 20/33/4
f 4/14/2 13/34/2 3/2/2
f 6/7/4 20/33/4 5/8/4
f 19/4/6 12/20/6 8/35/6
f 21/28/1 32/36/1 27/37/1
f 23/24/7 18/38/7 16/9/7
f 22/13/5 15/39/5 13/30/5
f 14/16/2 22/6/2 13/34/2
f 31/40/3 38/41/3 30/18/3
f 27/37/1 40/42/1 35/43/1
f 12/20/3 29/44/3 11/21/3
f 10/22/1 25/45/1 26/46/1
f 11/21/9 32/47/9 24/23/9
f 18/38/9 25/48/9 9/25/9
f 10/22/10 31/49/10 17/15/10
f 21/29/10 28/50/10 12/20/10
f 34/51/8 38/41/8 39/52/8
f 35/43/8 37/53/8 36/54/8
f 30/55/11 33/56/11 25/48/11
f 27/57/12 36/54/12 28/50/12
f 29/44/11 40/58/11 32/47/11
f 26/46/12 39/59/12 31/49/12
f 28/50/3 37/53/3 29/44/3
f 26/46/1 33/60/1 34/61/1
f 2/1/1 4/14/1 3/2/1
f 19/4/2 8/35/2 7/5/2
f 7/5/3 8/35/3 6/7/3
f 16/9/4 2/26/4 1/10/4
f 7/5/5 5/8/5 20/12/5
f 4/14/6 10/22/6 17/15/6
f 17/17/3 31/40/3 30/18/3
f 6/7/3 8/35/3 12/20/3
f 2/1/1 9/62/1 10/22/1
f 6/7/7 11/21/7 24/23/7
f 16/9/7 18/38/7 9/25/7
f 17/17/8 18/19/8 24/27/8
f 14/16/6 17/15/6 21/29/6
f 13/30/5 15/39/5 1/31/5
f 23/24/4 16/9/4 15/11/4
f 4/14/2 14/16/2 13/34/2
f 6/7/4 23/24/4 20/33/4
f 19/4/6 21/29/6 12/20/6
f 21/28/1 24/27/1 32/36/1
f 23/24/7 24/23/7 18/38/7
f 22/13/5 20/12/5 15/39/5
f 14/16/2 19/4/2 22/6/2
f 31/40/3 39/52/3 38/41/3
f 27/37/1 32/36/1 40/42/1
f 12/20/3 28/50/3 29/44/3
f 10/22/1 9/62/1 25/45/1
f 11/21/9 29/44/9 32/47/9
f 18/38/9 30/55/9 25/48/9
f 10/22/10 26/46/10 31/49/10
f 21/29/10 27/57/10 28/50/10
f 34/51/8 33/63/8 38/41/8
f 35/43/8 40/42/8 37/53/8
f 30/55/11 38/64/11 33/56/11
f 27/57/12 35/65/12 36/54/12
f 29/44/11 37/53/11 40/58/11
f 26/46/12 34/61/12 39/59/12
f 28/50/3 36/54/3 37/53/3
f 26/46/1 25/45/1 33/60/1
