# Blender v2.92.0 OBJ File: 'grand_piano_import_testing.blend'
# www.blender.org
mtllib key_jack.mtl
o white_keys.014_Cube.053
v -0.002428 -0.002214 0.003838
v -0.002428 0.057577 -0.025307
v -0.002428 -0.003852 -0.002424
v -0.002428 0.054705 -0.031113
v 0.002428 -0.002214 0.003838
v 0.002428 0.057577 -0.025307
v 0.002428 -0.003852 -0.002424
v 0.002428 0.054705 -0.031113
v -0.002428 0.000023 -0.003838
v 0.002428 0.000023 -0.003838
v 0.002428 0.003852 0.002303
v -0.002428 0.003852 0.002303
v 0.002428 0.007430 0.026091
v 0.002428 0.003391 0.026892
v -0.002428 0.003391 0.026892
v -0.002428 0.007430 0.026091
v 0.002428 0.007810 0.026468
v 0.002428 0.004192 0.029698
v -0.002428 0.004192 0.029698
v -0.002428 0.007810 0.026468
v 0.002428 0.008595 0.026773
v 0.002428 0.006237 0.031770
v -0.002428 0.006237 0.031770
v -0.002428 0.008595 0.026773
v 0.002428 0.009383 0.026997
v 0.002428 0.009389 0.031392
v -0.002428 0.009389 0.031392
v -0.002428 0.009383 0.026997
v 0.002428 0.010288 0.027662
v 0.002428 0.010637 0.030055
v -0.002428 0.010637 0.030055
v -0.002428 0.010288 0.027662
v -0.002428 0.006326 -0.006982
v 0.002428 0.006326 -0.006982
v 0.002428 0.009060 -0.001063
v -0.002428 0.009060 -0.001063
v -0.000000 0.025852 -0.025808
v -0.000000 0.025063 -0.020270
v 0.002049 0.025315 -0.025538
v 0.000323 0.024978 -0.020227
v 0.003447 0.023872 -0.024815
v 0.000544 0.024750 -0.020113
v 0.003751 0.021982 -0.023869
v 0.000592 0.024452 -0.019964
v 0.002864 0.020246 -0.022999
v 0.000452 0.024178 -0.019826
v 0.001067 0.019214 -0.022481
v 0.000168 0.024015 -0.019745
v -0.001068 0.019214 -0.022481
v -0.000169 0.024015 -0.019745
v -0.002864 0.020246 -0.022999
v -0.000452 0.024178 -0.019826
v -0.003751 0.021982 -0.023869
v -0.000592 0.024452 -0.019964
v -0.003447 0.023872 -0.024815
v -0.000544 0.024750 -0.020113
v -0.002049 0.025315 -0.025538
v -0.000323 0.024978 -0.020227
v 0.002049 0.027374 -0.021428
v -0.000000 0.027912 -0.021697
v 0.003447 0.025932 -0.020705
v 0.003751 0.024042 -0.019758
v 0.002864 0.022306 -0.018888
v 0.001067 0.021274 -0.018371
v -0.001068 0.021274 -0.018371
v -0.002864 0.022306 -0.018888
v -0.003751 0.024042 -0.019758
v -0.003447 0.025932 -0.020705
v -0.002049 0.027374 -0.021428
v -0.000000 0.030586 -0.009246
v 0.000323 0.030501 -0.009203
v 0.000544 0.030274 -0.009089
v 0.000592 0.029976 -0.008940
v 0.000452 0.029702 -0.008802
v 0.000168 0.029539 -0.008721
v -0.000169 0.029539 -0.008721
v -0.000452 0.029702 -0.008802
v -0.000592 0.029976 -0.008940
v -0.000544 0.030274 -0.009089
v -0.000323 0.030501 -0.009203
vt 0.909325 0.697273
vt 0.913106 0.746621
vt 0.908898 0.726815
vt 0.751209 0.826208
vt 0.722682 0.833948
vt 0.722682 0.826208
vt 0.683145 0.768688
vt 0.654618 0.783412
vt 0.654618 0.768688
vt 0.913136 0.136279
vt 0.909574 0.423677
vt 0.909325 0.150081
vt 0.892203 0.381996
vt 0.863676 0.108521
vt 0.892203 0.108521
vt 0.909652 0.086668
vt 0.895490 0.135051
vt 0.896108 0.112542
vt 0.913106 0.100733
vt 0.913360 0.079000
vt 0.683145 0.460857
vt 0.654618 0.439149
vt 0.683145 0.439149
vt 0.909652 0.760686
vt 0.913360 0.768354
vt 0.895490 0.712303
vt 0.894430 0.731004
vt 0.895194 0.710286
vt 0.751209 0.833948
vt 0.722682 0.860091
vt 0.873624 0.741726
vt 0.845097 0.756783
vt 0.845097 0.741726
vt 0.895194 0.137068
vt 0.892816 0.127197
vt 0.894430 0.116350
vt 0.873624 0.756783
vt 0.845097 0.758809
vt 0.751209 0.860091
vt 0.722682 0.863932
vt 0.873624 0.763090
vt 0.845097 0.767403
vt 0.845097 0.763090
vt 0.873624 0.758809
vt 0.751209 0.863932
vt 0.722682 0.874808
vt 0.892816 0.720157
vt 0.894832 0.706014
vt 0.894512 0.701706
vt 0.892584 0.695450
vt 0.893930 0.696851
vt 0.751209 0.874808
vt 0.722682 0.892320
vt 0.892203 0.702650
vt 0.894832 0.141341
vt 0.892203 0.144704
vt 0.845097 0.772275
vt 0.873624 0.773731
vt 0.845097 0.773731
vt 0.894512 0.145647
vt 0.892584 0.151904
vt 0.873624 0.767403
vt 0.751209 0.892320
vt 0.722682 0.899509
vt 0.654618 0.496342
vt 0.683145 0.496342
vt 0.654618 0.460857
vt 0.863676 0.079000
vt 0.892203 0.079000
vt 0.908898 0.120539
vt 0.909574 0.423677
vt 0.913136 0.711075
vt 0.082705 0.857406
vt 0.094742 0.849862
vt 0.094742 0.860434
vt 0.102958 0.868556
vt 0.120714 0.772858
vt 0.123413 0.773040
vt 0.120714 0.783514
vt 0.552969 0.867601
vt 0.558180 0.866863
vt 0.558180 0.877389
vt 0.568734 0.883207
vt 0.568734 0.872680
vt 0.581280 0.883207
vt 0.591834 0.866863
vt 0.591834 0.877389
vt 0.597046 0.857074
vt 0.597046 0.867601
vt 0.120714 0.772858
vt 0.118015 0.773039
vt 0.118015 0.762384
vt 0.574018 0.857225
vt 0.575997 0.828994
vt 0.575997 0.857225
vt 0.062452 0.857984
vt 0.070667 0.860434
vt 0.062452 0.868556
vt 0.070667 0.849862
vt 0.065878 0.888969
vt 0.573108 0.851800
vt 0.575007 0.835260
vt 0.575007 0.851322
vt 0.571812 0.853083
vt 0.562970 0.838291
vt 0.571531 0.854763
vt 0.554754 0.846424
vt 0.572353 0.856307
vt 0.552969 0.857074
vt 0.581280 0.872680
vt 0.577662 0.856307
vt 0.578484 0.854763
vt 0.595260 0.846424
vt 0.578202 0.853083
vt 0.587044 0.838291
vt 0.576906 0.851800
vt 0.578202 0.824852
vt 0.577662 0.828076
vt 0.571531 0.826532
vt 0.375566 0.528326
vt 0.375140 0.555228
vt 0.375140 0.526672
vt 0.368070 0.623179
vt 0.369366 0.593545
vt 0.369366 0.621898
vt 0.572353 0.828076
vt 0.371265 0.621420
vt 0.371265 0.593067
vt 0.373164 0.593545
vt 0.373164 0.621898
vt 0.578484 0.826532
vt 0.574018 0.828994
vt 0.374460 0.623179
vt 0.374460 0.594826
vt 0.374714 0.556881
vt 0.375140 0.526672
vt 0.375140 0.555228
vt 0.683145 0.783412
vt 0.913360 0.409089
vt 0.863676 0.381996
vt 0.896108 0.734812
vt 0.873624 0.772275
vt 0.893930 0.150503
vt 0.751209 0.899509
vt 0.913360 0.438265
vt 0.082705 0.846834
vt 0.102958 0.857984
vt 0.123413 0.762384
vt 0.120714 0.783513
vt 0.088977 0.894780
vt 0.104743 0.879194
vt 0.099531 0.888969
vt 0.076432 0.894780
vt 0.060666 0.879194
vt 0.571812 0.824852
vt 0.573108 0.823569
vt 0.575007 0.823091
vt 0.576906 0.823569
vt 0.375566 0.556881
vt 0.368070 0.594826
vt 0.374714 0.528326
vn -1.0000 -0.0000 0.0000
vn 0.0000 -0.9674 0.2531
vn 0.0000 0.8964 -0.4433
vn 1.0000 0.0000 0.0000
vn 0.0000 0.4470 0.8945
vn 0.0000 -0.3429 -0.9394
vn 0.0000 -0.9717 0.2362
vn 0.0000 0.9889 -0.1488
vn 0.0000 0.7050 -0.7092
vn 0.0000 -0.9615 0.2746
vn 0.0000 0.2738 -0.9618
vn 0.0000 0.3617 -0.9323
vn 0.0000 -0.7118 0.7024
vn 0.0000 0.1190 0.9929
vn 0.0000 0.9895 -0.1445
vn 0.0000 0.5919 -0.8060
vn 0.0000 0.7310 0.6824
vn 0.0000 -0.4464 -0.8949
vn 0.0000 0.5427 0.8399
vn 0.2817 0.8578 -0.4298
vn 0.7558 0.5855 -0.2934
vn 0.9898 0.1272 -0.0638
vn 0.9096 -0.3714 0.1861
vn 0.5406 -0.7521 0.3769
vn 0.0000 -0.8940 0.4480
vn -0.5406 -0.7521 0.3769
vn -0.9096 -0.3714 0.1861
vn -0.9898 0.1272 -0.0638
vn -0.7558 0.5855 -0.2934
vn -0.2817 0.8578 -0.4298
vn -0.0000 -0.4480 -0.8940
vn 0.0000 0.4480 0.8940
vn 0.0000 0.4480 0.8941
vn -0.7557 0.5855 -0.2934
vn 0.7557 0.5855 -0.2934
vn -0.0000 -0.4480 -0.8941
vn -0.0001 0.4480 0.8941
vn 0.0000 0.4479 0.8941
usemtl 5
s off
f 36/1/1 9/2/1 12/3/1
f 7/4/2 1/5/2 3/6/2
f 4/7/3 6/8/3 8/9/3
f 34/10/4 6/11/4 35/12/4
f 6/13/5 36/14/5 35/15/5
f 5/16/4 13/17/4 14/18/4
f 10/19/4 5/16/4 7/20/4
f 9/21/6 7/22/6 3/23/6
f 1/24/1 9/2/1 3/25/1
f 16/26/1 19/27/1 20/28/1
f 1/24/1 16/26/1 12/3/1
f 5/29/7 15/30/7 1/5/7
f 12/31/8 13/32/8 11/33/8
f 17/34/4 22/35/4 18/36/4
f 13/17/4 18/36/4 14/18/4
f 16/37/9 17/38/9 13/32/9
f 14/39/10 19/40/10 15/30/10
f 24/41/11 25/42/11 21/43/11
f 20/44/12 21/43/12 17/38/12
f 18/45/13 23/46/13 19/40/13
f 20/28/1 23/47/1 24/48/1
f 28/49/1 31/50/1 32/51/1
f 22/52/14 27/53/14 23/46/14
f 24/48/1 27/54/1 28/49/1
f 21/55/4 26/56/4 22/35/4
f 29/57/15 31/58/15 30/59/15
f 25/60/4 30/61/4 26/56/4
f 28/62/16 29/57/16 25/42/16
f 26/63/17 31/64/17 27/53/17
f 4/7/18 34/65/18 33/66/18
f 33/66/18 10/67/18 9/21/18
f 35/15/19 12/68/19 11/69/19
f 10/19/4 35/12/4 11/70/4
f 2/71/1 33/72/1 36/1/1
f 37/73/20 59/74/20 39/75/20
f 59/74/21 41/76/21 39/75/21
f 41/77/22 62/78/22 43/79/22
f 43/80/23 63/81/23 45/82/23
f 63/81/24 47/83/24 45/82/24
f 64/84/25 49/85/25 47/83/25
f 49/85/26 66/86/26 51/87/26
f 51/87/27 67/88/27 53/89/27
f 67/90/28 55/91/28 53/92/28
f 48/93/25 76/94/25 50/95/25
f 68/96/29 57/97/29 55/98/29
f 69/99/30 37/73/30 57/97/30
f 51/100/31 55/98/31 39/75/31
f 40/101/32 60/102/32 38/103/32
f 42/104/32 59/105/32 40/101/32
f 44/106/33 61/107/33 42/104/33
f 46/108/33 62/109/33 44/106/33
f 48/93/33 63/81/33 46/108/33
f 48/93/32 65/110/32 64/84/32
f 50/95/32 66/86/32 65/110/32
f 52/111/32 67/88/32 66/86/32
f 54/112/33 68/113/33 67/88/33
f 56/114/32 69/115/32 68/113/32
f 58/116/32 60/102/32 69/115/32
f 79/117/33 77/118/33 73/119/33
f 42/120/22 73/121/22 44/122/22
f 56/123/34 80/124/34 58/125/34
f 50/95/26 77/118/26 52/111/26
f 46/108/23 73/119/23 74/126/23
f 38/127/30 80/124/30 70/128/30
f 38/127/20 71/129/20 40/130/20
f 52/111/27 78/131/27 54/112/27
f 46/108/24 75/132/24 48/93/24
f 42/133/35 71/129/35 72/134/35
f 54/135/28 79/136/28 56/137/28
f 36/1/1 33/72/1 9/2/1
f 7/4/2 5/29/2 1/5/2
f 4/7/3 2/138/3 6/8/3
f 34/10/4 8/139/4 6/11/4
f 6/13/5 2/140/5 36/14/5
f 5/16/4 11/70/4 13/17/4
f 10/19/4 11/70/4 5/16/4
f 9/21/6 10/67/6 7/22/6
f 1/24/1 12/3/1 9/2/1
f 16/26/1 15/141/1 19/27/1
f 1/24/1 15/141/1 16/26/1
f 5/29/7 14/39/7 15/30/7
f 12/31/8 16/37/8 13/32/8
f 17/34/4 21/55/4 22/35/4
f 13/17/4 17/34/4 18/36/4
f 16/37/9 20/44/9 17/38/9
f 14/39/10 18/45/10 19/40/10
f 24/41/11 28/62/11 25/42/11
f 20/44/12 24/41/12 21/43/12
f 18/45/13 22/52/13 23/46/13
f 20/28/1 19/27/1 23/47/1
f 28/49/1 27/54/1 31/50/1
f 22/52/14 26/63/14 27/53/14
f 24/48/1 23/47/1 27/54/1
f 21/55/4 25/60/4 26/56/4
f 29/57/15 32/142/15 31/58/15
f 25/60/4 29/143/4 30/61/4
f 28/62/16 32/142/16 29/57/16
f 26/63/17 30/144/17 31/64/17
f 4/7/18 8/9/18 34/65/18
f 33/66/18 34/65/18 10/67/18
f 35/15/19 36/14/19 12/68/19
f 10/19/4 34/10/4 35/12/4
f 2/71/1 4/145/1 33/72/1
f 37/73/20 60/146/20 59/74/20
f 59/74/21 61/147/21 41/76/21
f 41/77/22 61/148/22 62/78/22
f 43/80/23 62/109/23 63/81/23
f 63/81/24 64/84/24 47/83/24
f 64/84/25 65/110/25 49/85/25
f 49/85/26 65/110/26 66/86/26
f 51/87/27 66/86/27 67/88/27
f 67/90/28 68/149/28 55/91/28
f 48/93/25 75/132/25 76/94/25
f 68/96/34 69/99/34 57/97/34
f 69/99/30 60/146/30 37/73/30
f 57/97/31 37/73/31 39/75/31
f 39/75/31 41/76/31 47/150/31
f 41/76/31 43/151/31 47/150/31
f 43/151/36 45/152/36 47/150/36
f 47/150/31 49/153/31 51/100/31
f 51/100/31 53/154/31 55/98/31
f 55/98/31 57/97/31 39/75/31
f 47/150/31 51/100/31 39/75/31
f 40/101/32 59/105/32 60/102/32
f 42/104/32 61/107/32 59/105/32
f 44/106/32 62/109/32 61/107/32
f 46/108/32 63/81/32 62/109/32
f 48/93/32 64/84/32 63/81/32
f 48/93/32 50/95/32 65/110/32
f 50/95/33 52/111/33 66/86/33
f 52/111/32 54/112/32 67/88/32
f 54/112/32 56/114/32 68/113/32
f 56/114/32 58/116/32 69/115/32
f 58/116/32 38/103/32 60/102/32
f 72/155/32 71/156/32 70/157/32
f 70/157/32 80/158/32 79/117/32
f 79/117/37 78/131/37 77/118/37
f 77/118/38 76/94/38 73/119/38
f 76/94/32 75/132/32 73/119/32
f 75/132/32 74/126/32 73/119/32
f 73/119/38 72/155/38 70/157/38
f 70/157/32 79/117/32 73/119/32
f 42/120/22 72/159/22 73/121/22
f 56/123/29 79/160/29 80/124/29
f 50/95/26 76/94/26 77/118/26
f 46/108/23 44/106/23 73/119/23
f 38/127/30 58/125/30 80/124/30
f 38/127/20 70/128/20 71/129/20
f 52/111/27 77/118/27 78/131/27
f 46/108/24 74/126/24 75/132/24
f 42/133/21 40/130/21 71/129/21
f 54/135/28 78/161/28 79/136/28
