# Blender v2.92.0 OBJ File: 'grand_piano_import_testing.blend'
# www.blender.org
mtllib key_bottom_handle.mtl
o white_keys.016_Cube.054
v -0.005197 -0.029665 0.004805
v -0.005197 -0.020054 0.004805
v -0.005197 -0.029665 -0.004805
v -0.005197 -0.020054 -0.004805
v 0.005197 -0.029665 0.004805
v 0.005197 -0.020054 0.004805
v 0.005197 -0.029665 -0.004805
v 0.005197 -0.020054 -0.004805
v -0.005197 -0.007681 0.004805
v -0.005197 -0.007681 -0.004805
v 0.005197 -0.007681 0.004805
v 0.005197 -0.007681 -0.004805
v -0.003464 -0.029665 -0.004805
v -0.003464 -0.020054 -0.004805
v -0.003464 -0.029665 0.004805
v -0.003464 -0.020054 0.004805
v -0.003464 -0.007681 -0.004805
v -0.003464 -0.007681 0.004805
v 0.003464 -0.020054 -0.004805
v 0.003464 -0.029665 0.004805
v 0.003464 -0.007681 -0.004805
v 0.003464 -0.029665 -0.004805
v 0.003464 -0.020054 0.004805
v 0.003464 -0.007681 0.004805
v -0.005197 0.005867 0.004805
v -0.005197 0.005867 -0.004805
v 0.003464 0.005867 -0.004805
v 0.005197 0.005867 -0.004805
v 0.005197 0.005867 0.004805
v -0.003464 0.005867 0.004805
v -0.003464 0.005867 -0.004805
v 0.003464 0.005867 0.004805
v -0.005197 0.007411 0.003283
v -0.005197 0.007411 -0.003283
v 0.003464 0.007411 -0.003283
v 0.005197 0.007411 -0.003283
v 0.005197 0.007411 0.003283
v -0.003464 0.007411 0.003283
v -0.003464 0.007411 -0.003283
v 0.003464 0.007411 0.003283
vt 0.232343 0.709912
vt 0.237485 0.654742
vt 0.237485 0.707901
vt 0.752528 0.576631
vt 0.742344 0.523485
vt 0.752528 0.523485
vt 0.647751 0.590753
vt 0.652892 0.645922
vt 0.647751 0.643912
vt 0.537666 0.580158
vt 0.527482 0.527000
vt 0.537666 0.527000
vt 0.504942 0.728243
vt 0.498662 0.721023
vt 0.504942 0.721023
vt 0.803414 0.576631
vt 0.793229 0.645058
vt 0.793229 0.576631
vt 0.886515 0.606646
vt 0.891657 0.533719
vt 0.891657 0.608657
vt 0.652892 0.592763
vt 0.647751 0.522310
vt 0.652892 0.524321
vt 0.232343 0.656753
vt 0.237485 0.586299
vt 0.588552 0.580158
vt 0.578368 0.648601
vt 0.578368 0.580158
vt 0.527482 0.648601
vt 0.527482 0.580158
vt 0.954322 0.401316
vt 0.948089 0.372460
vt 0.954322 0.372460
vt 0.752528 0.645058
vt 0.504942 0.692167
vt 0.498662 0.684947
vt 0.504942 0.684947
vt 0.578368 0.527000
vt 0.793229 0.523485
vt 0.803414 0.523485
vt 0.588552 0.527000
vt 0.742344 0.645058
vt 0.742344 0.576631
vt 0.891656 0.681781
vt 0.886515 0.608854
vt 0.891656 0.606844
vt 0.537666 0.648601
vt 0.498662 0.692167
vt 0.887330 0.523485
vt 0.890842 0.524858
vt 0.890842 0.598620
vt 0.652892 0.449383
vt 0.232343 0.513372
vt 0.237485 0.511362
vt 0.588552 0.648601
vt 0.578368 0.723538
vt 0.527482 0.723538
vt 0.803414 0.645058
vt 0.793229 0.719978
vt 0.742344 0.719978
vt 0.750860 0.735435
vt 0.746602 0.728215
vt 0.750860 0.728215
vt 0.746602 0.735435
vt 0.742344 0.728215
vt 0.746602 0.728215
vt 0.537666 0.723538
vt 0.527482 0.732401
vt 0.752528 0.719978
vt 0.742344 0.728215
vt 0.588552 0.723538
vt 0.578368 0.732401
vt 0.803414 0.728215
vt 0.793229 0.728215
vt 0.648565 0.439149
vt 0.652077 0.440522
vt 0.236670 0.503138
vt 0.498662 0.728243
vt 0.886515 0.531708
vt 0.232343 0.588310
vt 0.948089 0.401316
vt 0.886515 0.683792
vt 0.887330 0.599994
vt 0.647751 0.447372
vt 0.803414 0.719978
vt 0.746602 0.735435
vt 0.742344 0.735435
vt 0.537666 0.732401
vt 0.752528 0.728215
vt 0.588552 0.732401
vt 0.233158 0.504512
vn -1.0000 -0.0000 0.0000
vn 0.0000 0.0000 -1.0000
vn 1.0000 -0.0000 0.0000
vn 0.0000 -0.0000 1.0000
vn 0.0000 -1.0000 0.0000
vn 0.0000 1.0000 0.0000
vn 0.0000 0.7021 0.7121
vn 0.0000 0.7021 -0.7121
usemtl 3
s off
f 1/1/1 4/2/1 3/3/1
f 19/4/2 7/5/2 22/6/2
f 8/7/3 5/8/3 7/9/3
f 16/10/4 1/11/4 15/12/4
f 7/13/5 20/14/5 22/15/5
f 4/16/2 17/17/2 14/18/2
f 17/19/3 30/20/3 18/21/3
f 6/22/3 12/23/3 11/24/3
f 2/25/1 10/26/1 4/2/1
f 6/27/4 24/28/4 23/29/4
f 16/10/4 9/30/4 2/31/4
f 17/32/6 24/33/6 21/34/6
f 14/18/2 21/35/2 19/4/2
f 13/36/5 1/37/5 3/38/5
f 23/29/4 15/12/4 20/39/4
f 4/16/2 13/40/2 3/41/2
f 6/27/4 20/39/4 5/42/4
f 19/4/2 12/43/2 8/44/2
f 21/45/1 32/46/1 27/47/1
f 23/29/4 18/48/4 16/10/4
f 22/15/5 15/49/5 13/36/5
f 14/18/2 22/6/2 13/40/2
f 30/20/3 39/50/3 38/51/3
f 32/46/1 35/52/1 27/47/1
f 12/23/3 29/53/3 11/24/3
f 10/26/1 25/54/1 26/55/1
f 11/56/4 32/57/4 24/28/4
f 18/48/4 25/58/4 9/30/4
f 10/59/2 31/60/2 17/17/2
f 21/35/2 28/61/2 12/43/2
f 34/62/6 38/63/6 39/64/6
f 35/65/6 37/66/6 36/67/6
f 30/68/7 33/69/7 25/58/7
f 27/70/8 36/71/8 28/61/8
f 29/72/7 40/73/7 32/57/7
f 31/60/8 34/74/8 39/75/8
f 29/53/3 36/76/3 37/77/3
f 25/54/1 34/78/1 26/55/1
f 1/1/1 2/25/1 4/2/1
f 19/4/2 8/44/2 7/5/2
f 8/7/3 6/22/3 5/8/3
f 16/10/4 2/31/4 1/11/4
f 7/13/5 5/79/5 20/14/5
f 4/16/2 10/59/2 17/17/2
f 17/19/3 31/80/3 30/20/3
f 6/22/3 8/7/3 12/23/3
f 2/25/1 9/81/1 10/26/1
f 6/27/4 11/56/4 24/28/4
f 16/10/4 18/48/4 9/30/4
f 17/32/6 18/82/6 24/33/6
f 14/18/2 17/17/2 21/35/2
f 13/36/5 15/49/5 1/37/5
f 23/29/4 16/10/4 15/12/4
f 4/16/2 14/18/2 13/40/2
f 6/27/4 23/29/4 20/39/4
f 19/4/2 21/35/2 12/43/2
f 21/45/1 24/83/1 32/46/1
f 23/29/4 24/28/4 18/48/4
f 22/15/5 20/14/5 15/49/5
f 14/18/2 19/4/2 22/6/2
f 30/20/3 31/80/3 39/50/3
f 32/46/1 40/84/1 35/52/1
f 12/23/3 28/85/3 29/53/3
f 10/26/1 9/81/1 25/54/1
f 11/56/4 29/72/4 32/57/4
f 18/48/4 30/68/4 25/58/4
f 10/59/2 26/86/2 31/60/2
f 21/35/2 27/70/2 28/61/2
f 34/62/6 33/87/6 38/63/6
f 35/65/6 40/88/6 37/66/6
f 30/68/7 38/89/7 33/69/7
f 27/70/8 35/90/8 36/71/8
f 29/72/7 37/91/7 40/73/7
f 31/60/8 26/86/8 34/74/8
f 29/53/3 28/85/3 36/76/3
f 25/54/1 33/92/1 34/78/1
