# Blender v2.92.0 OBJ File: 'grand_piano_import_testing.blend'
# www.blender.org
mtllib key_top_bar.mtl
o white_keys.009_Cube.048
v -0.002678 -0.002906 0.024118
v -0.003369 0.008142 0.024118
v -0.002678 -0.002906 -0.024118
v -0.003369 0.008142 -0.024118
v 0.003399 -0.002906 0.024118
v 0.003359 0.008142 0.024118
v 0.003399 -0.002906 -0.024118
v 0.003359 0.008142 -0.024118
v -0.000077 0.005457 -0.010776
v -0.000077 -0.005758 -0.010776
v -0.000774 0.005457 -0.011121
v -0.000774 -0.005758 -0.011121
v -0.000946 0.005457 -0.011895
v -0.000946 -0.005758 -0.011895
v -0.000463 0.005457 -0.012515
v -0.000463 -0.005758 -0.012515
v 0.000310 0.005457 -0.012515
v 0.000310 -0.005758 -0.012515
v 0.000793 0.005457 -0.011895
v 0.000793 -0.005758 -0.011895
v 0.000620 0.005457 -0.011121
v 0.000620 -0.005758 -0.011121
v -0.000077 -0.005758 -0.009665
v -0.001665 -0.005758 -0.010449
v -0.002057 -0.005758 -0.012213
v -0.000958 -0.005758 -0.013627
v 0.000805 -0.005758 -0.013627
v 0.001904 -0.005758 -0.012213
v 0.001512 -0.005758 -0.010449
v -0.000077 -0.007312 -0.009885
v -0.001488 -0.007312 -0.010583
v -0.001837 -0.007312 -0.012150
v -0.000860 -0.007312 -0.013406
v 0.000707 -0.007312 -0.013406
v 0.001684 -0.007312 -0.012150
v 0.001335 -0.007312 -0.010583
v -0.000077 -0.008186 -0.010340
v -0.001123 -0.008186 -0.010857
v -0.001382 -0.008186 -0.012019
v -0.000657 -0.008186 -0.012951
v 0.000504 -0.008186 -0.012951
v 0.001229 -0.008186 -0.012019
v 0.000970 -0.008186 -0.010857
v -0.000077 -0.008574 -0.011212
v -0.000425 -0.008574 -0.011384
v -0.000511 -0.008574 -0.011770
v -0.000270 -0.008574 -0.012080
v 0.000117 -0.008574 -0.012080
v 0.000358 -0.008574 -0.011770
v 0.000272 -0.008574 -0.011384
vt 0.153725 0.842457
vt 0.127920 0.913665
vt 0.127920 0.852549
vt 0.294622 0.896750
vt 0.330324 0.835718
vt 0.330324 0.896818
vt 0.153894 0.849794
vt 0.179699 0.921000
vt 0.153894 0.910908
vt 0.722682 0.887322
vt 0.686980 0.826275
vt 0.722682 0.826207
vt 0.922347 0.866959
vt 0.953869 0.892270
vt 0.922347 0.892270
vt 0.834879 0.865151
vt 0.866164 0.893181
vt 0.834879 0.893181
vt 0.367469 0.877597
vt 0.371565 0.815646
vt 0.371565 0.877666
vt 0.372576 0.815801
vt 0.372576 0.877819
vt 0.751209 0.826207
vt 0.754043 0.888371
vt 0.751209 0.888240
vt 0.754043 0.826338
vt 0.758589 0.888371
vt 0.761423 0.826207
vt 0.761423 0.888240
vt 0.505559 0.612627
vt 0.504615 0.609631
vt 0.505767 0.607996
vt 0.362363 0.815801
vt 0.363374 0.877666
vt 0.362363 0.877819
vt 0.363374 0.815646
vt 0.231061 0.595761
vt 0.230555 0.595044
vt 0.230555 0.589237
vt 0.651504 0.773452
vt 0.639642 0.779333
vt 0.639446 0.773452
vt 0.505965 0.617859
vt 0.505767 0.624499
vt 0.505559 0.619868
vt 0.505053 0.613344
vt 0.504102 0.616248
vt 0.505965 0.614637
vt 0.506691 0.612576
vt 0.504615 0.622865
vt 0.505053 0.619151
vt 0.506691 0.619920
vt 0.504828 0.616248
vt 0.633227 0.778889
vt 0.632901 0.777812
vt 0.527061 0.709138
vt 0.515294 0.714126
vt 0.514921 0.710057
vt 0.527061 0.725641
vt 0.515294 0.720653
vt 0.527482 0.721062
vt 0.639642 0.767572
vt 0.651724 0.766835
vt 0.651724 0.780069
vt 0.640081 0.780785
vt 0.527482 0.713718
vt 0.640081 0.766119
vt 0.652219 0.765201
vt 0.508063 0.722827
vt 0.505051 0.718195
vt 0.508340 0.719809
vt 0.508340 0.714970
vt 0.633227 0.768015
vt 0.632756 0.773452
vt 0.508063 0.711953
vt 0.514921 0.724723
vt 0.632901 0.769092
vt 0.504326 0.533242
vt 0.504125 0.534246
vt 0.504125 0.530628
vt 0.630019 0.772002
vt 0.503677 0.528077
vt 0.503875 0.530986
vt 0.505051 0.716585
vt 0.503677 0.536797
vt 0.504430 0.537874
vt 0.630019 0.774903
vt 0.629971 0.773452
vt 0.504958 0.715581
vt 0.153725 0.903573
vt 0.290787 0.835643
vt 0.179699 0.859886
vt 0.683145 0.887396
vt 0.953869 0.866959
vt 0.866164 0.865151
vt 0.367469 0.815578
vt 0.758589 0.826338
vt 0.230330 0.592141
vt 0.231061 0.588520
vt 0.231466 0.590529
vt 0.231466 0.593752
vt 0.652219 0.781704
vt 0.504958 0.719198
vt 0.503875 0.533887
vt 0.503763 0.532437
vt 0.504326 0.531632
vt 0.504430 0.527000
vn -0.9980 -0.0625 0.0000
vn 0.0000 0.0000 -1.0000
vn 1.0000 0.0035 -0.0000
vn 0.0000 0.0000 1.0000
vn 0.0000 -1.0000 0.0000
vn 0.0000 1.0000 0.0000
vn 0.4430 0.0000 -0.8965
vn 0.9761 0.0000 -0.2172
vn 0.7895 -0.0000 0.6137
vn -0.7895 -0.0000 0.6137
vn -0.9761 0.0000 -0.2172
vn -0.4430 0.0000 -0.8965
vn -0.4394 0.1262 -0.8894
vn -0.8814 0.4297 -0.1961
vn -0.7822 0.1357 0.6080
vn 0.7822 0.1357 0.6080
vn 0.4394 0.1262 -0.8894
vn -0.9680 0.1286 -0.2154
vn 0.0000 0.1405 0.9901
vn 0.9680 0.1286 -0.2154
vn 0.3312 0.9078 0.2574
vn 0.0000 0.4619 0.8869
vn 0.8814 0.4297 -0.1961
vn -0.4014 0.4231 -0.8123
vn -0.7054 0.4491 0.5483
vn 0.7054 0.4491 0.5483
vn 0.4014 0.4231 -0.8123
vn 0.1972 0.8954 -0.3992
vn -0.4281 0.8987 -0.0952
vn 0.0000 0.9133 0.4072
vn 0.4281 0.8987 -0.0952
vn -0.1972 0.8954 -0.3992
vn -0.3312 0.9078 0.2574
usemtl 2
s off
f 1/1/1 4/2/1 3/3/1
f 3/4/2 8/5/2 7/6/2
f 8/7/3 5/8/3 7/9/3
f 6/10/4 1/11/4 5/12/4
f 7/13/5 1/14/5 3/15/5
f 4/16/6 6/17/6 8/18/6
f 9/19/7 12/20/7 11/21/7
f 11/21/8 14/22/8 13/23/8
f 14/24/9 15/25/9 13/26/9
f 16/27/4 17/28/4 15/25/4
f 17/28/10 20/29/10 19/30/10
f 14/31/5 24/32/5 25/33/5
f 20/34/11 21/35/11 19/36/11
f 22/37/12 9/19/12 21/35/12
f 19/38/5 21/39/5 11/40/5
f 23/41/13 36/42/13 30/43/13
f 18/44/5 28/45/5 20/46/5
f 12/47/5 23/48/5 24/32/5
f 16/49/5 25/33/5 26/50/5
f 20/46/5 29/51/5 22/52/5
f 16/49/5 27/53/5 18/44/5
f 22/52/5 23/48/5 10/54/5
f 36/42/14 42/55/14 43/56/14
f 28/57/15 34/58/15 35/59/15
f 25/60/16 33/61/16 26/62/16
f 23/41/17 31/63/17 24/64/17
f 29/65/18 35/66/18 36/42/18
f 26/62/19 34/58/19 27/67/19
f 24/64/20 32/68/20 25/69/20
f 39/70/21 47/71/21 40/72/21
f 33/61/22 41/73/22 34/58/22
f 31/63/23 39/74/23 32/68/23
f 30/43/24 43/56/24 37/75/24
f 35/59/25 41/73/25 42/76/25
f 32/77/26 40/72/26 33/61/26
f 30/43/27 38/78/27 31/63/27
f 47/79/6 46/80/6 49/81/6
f 37/75/28 45/82/28 38/78/28
f 43/83/29 49/81/29 50/84/29
f 40/72/30 48/85/30 41/73/30
f 38/86/31 46/80/31 39/87/31
f 37/75/32 50/88/32 44/89/32
f 42/76/33 48/85/33 49/90/33
f 1/1/1 2/91/1 4/2/1
f 3/4/2 4/92/2 8/5/2
f 8/7/3 6/93/3 5/8/3
f 6/10/4 2/94/4 1/11/4
f 7/13/5 5/95/5 1/14/5
f 4/16/6 2/96/6 6/17/6
f 9/19/7 10/97/7 12/20/7
f 11/21/8 12/20/8 14/22/8
f 14/24/9 16/27/9 15/25/9
f 16/27/4 18/98/4 17/28/4
f 17/28/10 18/98/10 20/29/10
f 14/31/5 12/47/5 24/32/5
f 20/34/11 22/37/11 21/35/11
f 22/37/12 10/97/12 9/19/12
f 21/39/5 9/99/5 11/40/5
f 11/40/5 13/100/5 19/38/5
f 13/100/5 15/101/5 19/38/5
f 15/101/5 17/102/5 19/38/5
f 23/41/13 29/65/13 36/42/13
f 18/44/5 27/53/5 28/45/5
f 12/47/5 10/54/5 23/48/5
f 16/49/5 14/31/5 25/33/5
f 20/46/5 28/45/5 29/51/5
f 16/49/5 26/50/5 27/53/5
f 22/52/5 29/51/5 23/48/5
f 36/42/14 35/66/14 42/55/14
f 28/57/15 27/67/15 34/58/15
f 25/60/16 32/77/16 33/61/16
f 23/41/17 30/43/17 31/63/17
f 29/65/18 28/103/18 35/66/18
f 26/62/19 33/61/19 34/58/19
f 24/64/20 31/63/20 32/68/20
f 39/70/21 46/104/21 47/71/21
f 33/61/22 40/72/22 41/73/22
f 31/63/23 38/78/23 39/74/23
f 30/43/24 36/42/24 43/56/24
f 35/59/25 34/58/25 41/73/25
f 32/77/26 39/70/26 40/72/26
f 30/43/27 37/75/27 38/78/27
f 46/80/6 45/105/6 50/84/6
f 45/105/6 44/106/6 50/84/6
f 50/84/6 49/81/6 46/80/6
f 49/81/6 48/107/6 47/79/6
f 37/75/28 44/89/28 45/82/28
f 43/83/29 42/108/29 49/81/29
f 40/72/30 47/71/30 48/85/30
f 38/86/31 45/105/31 46/80/31
f 37/75/32 43/56/32 50/88/32
f 42/76/33 41/73/33 48/85/33
